<svg width="146" height="55" viewBox="0 0 146 55" fill="none" xmlns="http://www.w3.org/2000/svg">
<rect x="1" y="1" width="144" height="53" rx="20" stroke="#761A1A" stroke-width="2"/>
<path d="M31.1641 18.7617L39.2031 36H37.3516L34.6445 30.3281H27.2148L24.5195 36H22.5977L30.7422 18.7617H31.1641ZM30.9531 22.418L27.9883 28.6641H33.8828L30.9531 22.418ZM53.9922 25.8984L52.6914 26.707C51.5664 25.2148 50.0312 24.4688 48.0859 24.4688C46.5312 24.4688 45.2383 24.9688 44.207 25.9688C43.1836 26.9688 42.6719 28.1836 42.6719 29.6133C42.6719 30.543 42.9062 31.418 43.375 32.2383C43.8516 33.0586 44.5 33.6953 45.3203 34.1484C46.1484 34.6016 47.0742 34.8281 48.0977 34.8281C49.9727 34.8281 51.5039 34.082 52.6914 32.5898L53.9922 33.4453C53.3828 34.3594 52.5625 35.0703 51.5312 35.5781C50.5078 36.0781 49.3398 36.3281 48.0273 36.3281C46.0117 36.3281 44.3398 35.6875 43.0117 34.4062C41.6836 33.125 41.0195 31.5664 41.0195 29.7305C41.0195 28.4961 41.3281 27.3516 41.9453 26.2969C42.5703 25.2344 43.4258 24.4062 44.5117 23.8125C45.5977 23.2188 46.8125 22.9219 48.1562 22.9219C49 22.9219 49.8125 23.0508 50.5938 23.3086C51.3828 23.5664 52.0508 23.9023 52.5977 24.3164C53.1445 24.7305 53.6094 25.2578 53.9922 25.8984ZM69.5312 25.8984L68.2305 26.707C67.1055 25.2148 65.5703 24.4688 63.625 24.4688C62.0703 24.4688 60.7773 24.9688 59.7461 25.9688C58.7227 26.9688 58.2109 28.1836 58.2109 29.6133C58.2109 30.543 58.4453 31.418 58.9141 32.2383C59.3906 33.0586 60.0391 33.6953 60.8594 34.1484C61.6875 34.6016 62.6133 34.8281 63.6367 34.8281C65.5117 34.8281 67.043 34.082 68.2305 32.5898L69.5312 33.4453C68.9219 34.3594 68.1016 35.0703 67.0703 35.5781C66.0469 36.0781 64.8789 36.3281 63.5664 36.3281C61.5508 36.3281 59.8789 35.6875 58.5508 34.4062C57.2227 33.125 56.5586 31.5664 56.5586 29.7305C56.5586 28.4961 56.8672 27.3516 57.4844 26.2969C58.1094 25.2344 58.9648 24.4062 60.0508 23.8125C61.1367 23.2188 62.3516 22.9219 63.6953 22.9219C64.5391 22.9219 65.3516 23.0508 66.1328 23.3086C66.9219 23.5664 67.5898 23.9023 68.1367 24.3164C68.6836 24.7305 69.1484 25.2578 69.5312 25.8984ZM78.7305 22.9219C80.6914 22.9219 82.3164 23.6328 83.6055 25.0547C84.7773 26.3516 85.3633 27.8867 85.3633 29.6602C85.3633 31.4414 84.7422 33 83.5 34.3359C82.2656 35.6641 80.6758 36.3281 78.7305 36.3281C76.7773 36.3281 75.1797 35.6641 73.9375 34.3359C72.7031 33 72.0859 31.4414 72.0859 29.6602C72.0859 27.8945 72.6719 26.3633 73.8438 25.0664C75.1328 23.6367 76.7617 22.9219 78.7305 22.9219ZM78.7305 24.5273C77.3711 24.5273 76.2031 25.0312 75.2266 26.0391C74.25 27.0469 73.7617 28.2656 73.7617 29.6953C73.7617 30.6172 73.9844 31.4766 74.4297 32.2734C74.875 33.0703 75.4766 33.6875 76.2344 34.125C76.9922 34.5547 77.8242 34.7695 78.7305 34.7695C79.6367 34.7695 80.4688 34.5547 81.2266 34.125C81.9844 33.6875 82.5859 33.0703 83.0312 32.2734C83.4766 31.4766 83.6992 30.6172 83.6992 29.6953C83.6992 28.2656 83.207 27.0469 82.2227 26.0391C81.2461 25.0312 80.082 24.5273 78.7305 24.5273ZM88.2109 23.25H89.8633V29.2031C89.8633 30.6562 89.9414 31.6562 90.0977 32.2031C90.332 32.9844 90.7773 33.6016 91.4336 34.0547C92.0977 34.5078 92.8867 34.7344 93.8008 34.7344C94.7148 34.7344 95.4883 34.5156 96.1211 34.0781C96.7617 33.6328 97.2031 33.0508 97.4453 32.332C97.6094 31.8398 97.6914 30.7969 97.6914 29.2031V23.25H99.3672V29.5078C99.3672 31.2656 99.1602 32.5898 98.7461 33.4805C98.3398 34.3711 97.7227 35.0703 96.8945 35.5781C96.0742 36.0781 95.043 36.3281 93.8008 36.3281C92.5586 36.3281 91.5195 36.0781 90.6836 35.5781C89.8555 35.0703 89.2344 34.3672 88.8203 33.4688C88.4141 32.5625 88.2109 31.2031 88.2109 29.3906V23.25ZM103.023 23.25H104.664V25.5352C105.32 24.6602 106.047 24.0078 106.844 23.5781C107.641 23.1406 108.508 22.9219 109.445 22.9219C110.398 22.9219 111.242 23.1641 111.977 23.6484C112.719 24.1328 113.266 24.7852 113.617 25.6055C113.969 26.4258 114.145 27.7031 114.145 29.4375V36H112.516V29.918C112.516 28.4492 112.453 27.4688 112.328 26.9766C112.133 26.1328 111.766 25.5 111.227 25.0781C110.688 24.6484 109.984 24.4336 109.117 24.4336C108.125 24.4336 107.234 24.7617 106.445 25.418C105.664 26.0742 105.148 26.8867 104.898 27.8555C104.742 28.4883 104.664 29.6445 104.664 31.3242V36H103.023V23.25ZM119.102 18.5156H120.754V23.25H123.355V24.6562H120.754V36H119.102V24.6562H116.863V23.25H119.102V18.5156Z" fill="#761A1A"/>
</svg>
