<svg width="21" height="22" viewBox="0 0 21 22" fill="none" xmlns="http://www.w3.org/2000/svg">
<path d="M1.31254 0C0.964436 0 0.630585 0.136344 0.384435 0.379038C0.138285 0.621732 0 0.950896 0 1.29412C0 1.63734 0.138285 1.9665 0.384435 2.2092C0.630585 2.45189 0.964436 2.58824 1.31254 2.58824H2.91385L3.31417 4.16965C3.31815 4.18786 3.32253 4.20598 3.3273 4.224L5.10973 11.2511L3.93763 12.4054C2.28383 14.036 3.45462 16.8235 5.79357 16.8235H17.0631C17.4112 16.8235 17.745 16.6872 17.9912 16.4445C18.2373 16.2018 18.3756 15.8726 18.3756 15.5294C18.3756 15.1862 18.2373 14.857 17.9912 14.6143C17.745 14.3716 17.4112 14.2353 17.0631 14.2353H5.79357L7.10611 12.9412H15.7505C15.9942 12.941 16.2331 12.874 16.4403 12.7476C16.6475 12.6212 16.815 12.4405 16.9239 12.2255L20.8616 4.46082C20.9615 4.26357 21.0087 4.04441 20.9987 3.82413C20.9886 3.60384 20.9216 3.38975 20.8041 3.20216C20.6865 3.01457 20.5223 2.8597 20.327 2.75226C20.1317 2.64481 19.9118 2.58835 19.6882 2.58824H5.61769L5.2108 0.979647C5.1397 0.699799 4.97579 0.451399 4.74512 0.273907C4.51445 0.0964146 4.23024 7.58409e-06 3.93763 0H1.31254ZM18.3756 20.0588C18.3756 20.5737 18.1682 21.0674 17.799 21.4314C17.4297 21.7955 16.929 22 16.4068 22C15.8846 22 15.3839 21.7955 15.0146 21.4314C14.6454 21.0674 14.438 20.5737 14.438 20.0588C14.438 19.544 14.6454 19.0502 15.0146 18.6862C15.3839 18.3222 15.8846 18.1176 16.4068 18.1176C16.929 18.1176 17.4297 18.3222 17.799 18.6862C18.1682 19.0502 18.3756 19.544 18.3756 20.0588ZM5.90645 22C6.42861 22 6.92939 21.7955 7.29861 21.4314C7.66784 21.0674 7.87526 20.5737 7.87526 20.0588C7.87526 19.544 7.66784 19.0502 7.29861 18.6862C6.92939 18.3222 6.42861 18.1176 5.90645 18.1176C5.38428 18.1176 4.88351 18.3222 4.51428 18.6862C4.14506 19.0502 3.93763 19.544 3.93763 20.0588C3.93763 20.5737 4.14506 21.0674 4.51428 21.4314C4.88351 21.7955 5.38428 22 5.90645 22Z" fill="#FFF6E6"/>
</svg>
