<svg width="126" height="55" viewBox="0 0 126 55" fill="none" xmlns="http://www.w3.org/2000/svg">
<rect width="126" height="55" rx="21" fill="#761A1A"/>
<path d="M70.5117 21.9609L69.1523 23.0039C68.4023 22.0273 67.5 21.2891 66.4453 20.7891C65.3984 20.2812 64.2461 20.0273 62.9883 20.0273C61.6133 20.0273 60.3398 20.3594 59.168 21.0234C57.9961 21.6797 57.0859 22.5664 56.4375 23.6836C55.7969 24.793 55.4766 26.043 55.4766 27.4336C55.4766 29.5352 56.1953 31.2891 57.6328 32.6953C59.0781 34.1016 60.8984 34.8047 63.0938 34.8047C65.5078 34.8047 67.5273 33.8594 69.1523 31.9688L70.5117 33C69.6523 34.0938 68.5781 34.9414 67.2891 35.543C66.0078 36.1367 64.5742 36.4336 62.9883 36.4336C59.9727 36.4336 57.5938 35.4297 55.8516 33.4219C54.3906 31.7266 53.6602 29.6797 53.6602 27.2812C53.6602 24.7578 54.543 22.6367 56.3086 20.918C58.082 19.1914 60.3008 18.3281 62.9648 18.3281C64.5742 18.3281 66.0273 18.6484 67.3242 19.2891C68.6211 19.9219 69.6836 20.8125 70.5117 21.9609ZM86.4141 23.25V36H84.7969V33.8086C84.1094 34.6445 83.3359 35.2734 82.4766 35.6953C81.625 36.1172 80.6914 36.3281 79.6758 36.3281C77.8711 36.3281 76.3281 35.6758 75.0469 34.3711C73.7734 33.0586 73.1367 31.4648 73.1367 29.5898C73.1367 27.7539 73.7812 26.1836 75.0703 24.8789C76.3594 23.5742 77.9102 22.9219 79.7227 22.9219C80.7695 22.9219 81.7148 23.1445 82.5586 23.5898C83.4102 24.0352 84.1562 24.7031 84.7969 25.5938V23.25H86.4141ZM79.8516 24.5039C78.9375 24.5039 78.0938 24.7305 77.3203 25.1836C76.5469 25.6289 75.9297 26.2578 75.4688 27.0703C75.0156 27.8828 74.7891 28.7422 74.7891 29.6484C74.7891 30.5469 75.0195 31.4062 75.4805 32.2266C75.9414 33.0469 76.5586 33.6875 77.332 34.1484C78.1133 34.6016 78.9492 34.8281 79.8398 34.8281C80.7383 34.8281 81.5898 34.6016 82.3945 34.1484C83.1992 33.6953 83.8164 33.082 84.2461 32.3086C84.6836 31.5352 84.9023 30.6641 84.9023 29.6953C84.9023 28.2188 84.4141 26.9844 83.4375 25.9922C82.4688 25 81.2734 24.5039 79.8516 24.5039ZM89.4961 23.25H91.1719V25.1133C91.6719 24.3789 92.1992 23.832 92.7539 23.4727C93.3086 23.1055 93.8867 22.9219 94.4883 22.9219C94.9414 22.9219 95.4258 23.0664 95.9414 23.3555L95.0859 24.7383C94.7422 24.5898 94.4531 24.5156 94.2188 24.5156C93.6719 24.5156 93.1445 24.7422 92.6367 25.1953C92.1289 25.6406 91.7422 26.3359 91.4766 27.2812C91.2734 28.0078 91.1719 29.4766 91.1719 31.6875V36H89.4961V23.25ZM98.7656 18.5156H100.418V23.25H103.02V24.6562H100.418V36H98.7656V24.6562H96.5273V23.25H98.7656V18.5156Z" fill="#FFFBF4"/>
<path d="M18.375 16C18.0104 16 17.6606 16.1487 17.4027 16.4135C17.1449 16.6783 17 17.0373 17 17.4118C17 17.7862 17.1449 18.1453 17.4027 18.41C17.6606 18.6748 18.0104 18.8235 18.375 18.8235H20.0526L20.472 20.5487C20.4762 20.5686 20.4807 20.5883 20.4857 20.608L22.3531 28.2739L21.1251 29.5332C19.3926 31.312 20.6191 34.3529 23.0695 34.3529H34.8756C35.2403 34.3529 35.59 34.2042 35.8479 33.9394C36.1058 33.6747 36.2506 33.3156 36.2506 32.9412C36.2506 32.5668 36.1058 32.2077 35.8479 31.9429C35.59 31.6782 35.2403 31.5294 34.8756 31.5294H23.0695L24.4445 30.1176H33.5006C33.7558 30.1175 34.0061 30.0444 34.2232 29.9065C34.4403 29.7686 34.6157 29.5714 34.7298 29.3369L38.855 20.8664C38.9597 20.6512 39.0091 20.4121 38.9986 20.1718C38.9881 19.9315 38.9179 19.6979 38.7947 19.4933C38.6716 19.2886 38.4996 19.1197 38.295 19.0025C38.0904 18.8853 37.86 18.8237 37.6257 18.8235H22.8852L22.4589 17.0687C22.3844 16.7634 22.2127 16.4924 21.9711 16.2988C21.7294 16.1052 21.4317 16 21.1251 16H18.375ZM36.2506 37.8824C36.2506 38.444 36.0333 38.9826 35.6465 39.3798C35.2597 39.7769 34.7351 40 34.1881 40C33.641 40 33.1164 39.7769 32.7296 39.3798C32.3428 38.9826 32.1255 38.444 32.1255 37.8824C32.1255 37.3207 32.3428 36.7821 32.7296 36.385C33.1164 35.9878 33.641 35.7647 34.1881 35.7647C34.7351 35.7647 35.2597 35.9878 35.6465 36.385C36.0333 36.7821 36.2506 37.3207 36.2506 37.8824ZM23.1877 40C23.7347 40 24.2594 39.7769 24.6462 39.3798C25.033 38.9826 25.2503 38.444 25.2503 37.8824C25.2503 37.3207 25.033 36.7821 24.6462 36.385C24.2594 35.9878 23.7347 35.7647 23.1877 35.7647C22.6407 35.7647 22.1161 35.9878 21.7292 36.385C21.3424 36.7821 21.1251 37.3207 21.1251 37.8824C21.1251 38.444 21.3424 38.9826 21.7292 39.3798C22.1161 39.7769 22.6407 40 23.1877 40Z" fill="#FFFBF4"/>
</svg>
