<svg width="216" height="165" viewBox="0 0 216 165" fill="none" xmlns="http://www.w3.org/2000/svg">
<rect x="6.6" y="29.6" width="179.8" height="105.8" stroke="#761A1A" stroke-width="1.2"/>
<circle cx="186.089" cy="135.792" r="17.7363" fill="#D9D9D9"/>
<circle cx="186.089" cy="135.792" r="17.7363" fill="#761A1A"/>
<circle cx="186.089" cy="28.4648" r="17.7363" fill="#D9D9D9"/>
<circle cx="186.089" cy="28.4648" r="17.7363" fill="#761A1A"/>
<circle cx="186.736" cy="136.736" r="17.7363" fill="#D9D9D9"/>
<circle cx="186.736" cy="136.736" r="17.7363" fill="#FFFBF4"/>
<circle cx="186.736" cy="27.7363" r="17.7363" fill="#D9D9D9"/>
<circle cx="186.736" cy="27.7363" r="17.7363" fill="#FFFBF4"/>
<rect x="143.795" y="8" width="55.4827" height="20.9197" fill="#FFFBF4"/>
<rect x="143.795" y="136.247" width="55.4827" height="20.9197" fill="#FFFBF4"/>
<rect x="186.543" y="152.619" width="126.428" height="20.9197" transform="rotate(-90 186.543 152.619)" fill="#FFFBF4"/>
<rect x="0.6" y="23.7401" width="191.585" height="117.52" stroke="#761A1A" stroke-width="1.2"/>
<ellipse cx="192.39" cy="141.357" rx="19.5911" ry="19.6189" fill="#D9D9D9"/>
<ellipse cx="192.39" cy="141.357" rx="19.5911" ry="19.6189" fill="#761A1A"/>
<ellipse cx="192.39" cy="22.637" rx="19.5911" ry="19.6189" fill="#D9D9D9"/>
<ellipse cx="192.39" cy="22.637" rx="19.5911" ry="19.6189" fill="#761A1A"/>
<ellipse cx="193.591" cy="142.619" rx="19.5911" ry="19.6189" fill="#D9D9D9"/>
<ellipse cx="193.591" cy="142.619" rx="19.5911" ry="19.6189" fill="#FFFBF4"/>
<ellipse cx="193.591" cy="21.6189" rx="19.5911" ry="19.6189" fill="#D9D9D9"/>
<ellipse cx="193.591" cy="21.6189" rx="19.5911" ry="19.6189" fill="#FFFBF4"/>
<rect x="145.673" width="61.285" height="23.1402" fill="#FFFBF4"/>
<rect x="145.673" y="141.86" width="61.285" height="23.1402" fill="#FFFBF4"/>
<rect x="192.893" y="159.97" width="139.848" height="23.1075" transform="rotate(-90 192.893 159.97)" fill="#FFFBF4"/>
</svg>
