<svg width="55" height="55" viewBox="0 0 55 55" fill="none" xmlns="http://www.w3.org/2000/svg">
<rect x="1" y="1" width="53" height="53" rx="20" fill="#FFFBF4" stroke="#761A1A" stroke-width="2"/>
<path d="M37.1199 36.4231L29.3661 29.3661ZM31.2604 24.6302C31.2604 25.5009 31.089 26.3631 30.7558 27.1675C30.4226 27.9719 29.9342 28.7028 29.3185 29.3185C28.7028 29.9342 27.9719 30.4226 27.1675 30.7558C26.3631 31.089 25.5009 31.2604 24.6302 31.2604C23.7595 31.2604 22.8974 31.089 22.0929 30.7558C21.2885 30.4226 20.5576 29.9342 19.9419 29.3185C19.3263 28.7028 18.8379 27.9719 18.5047 27.1675C18.1715 26.3631 18 25.5009 18 24.6302C18 22.8718 18.6985 21.1854 19.9419 19.9419C21.1854 18.6985 22.8718 18 24.6302 18C26.3887 18 28.0751 18.6985 29.3185 19.9419C30.5619 21.1854 31.2604 22.8718 31.2604 24.6302Z" fill="#761A1A"/>
<path d="M37.1199 36.4231L29.3661 29.3661M31.2604 24.6302C31.2604 25.5009 31.089 26.3631 30.7558 27.1675C30.4226 27.9719 29.9342 28.7028 29.3185 29.3185C28.7028 29.9342 27.9719 30.4226 27.1675 30.7558C26.3631 31.089 25.5009 31.2604 24.6302 31.2604C23.7595 31.2604 22.8974 31.089 22.0929 30.7558C21.2885 30.4226 20.5576 29.9342 19.9419 29.3185C19.3263 28.7028 18.8379 27.9719 18.5047 27.1675C18.1715 26.3631 18 25.5009 18 24.6302C18 22.8718 18.6985 21.1854 19.9419 19.9419C21.1854 18.6985 22.8718 18 24.6302 18C26.3887 18 28.0751 18.6985 29.3185 19.9419C30.5619 21.1854 31.2604 22.8718 31.2604 24.6302Z" stroke="#761A1A" stroke-width="3.6233" stroke-linecap="round" stroke-linejoin="round"/>
<circle cx="24.7031" cy="24.5571" r="5.68305" fill="#FFFBF4"/>
</svg>
